<svg id="Слой_1" data-name="Слой 1" xmlns="http://www.w3.org/2000/svg" viewBox="0 0 3200 2000"><defs><style>.cls-1{fill:#fff;}.cls-2{fill:#949f91;}.cls-3{fill:#3d463a;}.cls-4{fill:#cc3d11;}.cls-5{fill:#fcfcfc;}.cls-27,.cls-6{fill:#f75919;}.cls-7{fill:#f97e4c;}.cls-8{fill:#f86b32;}.cls-9{fill:#f74700;}.cls-10{fill:#fba37f;}.cls-11{fill:#485244;}.cls-12{fill:#ffb27d;}.cls-13{fill:#ed975d;}.cls-14{fill:#dfebfd;}.cls-15{fill:#c0d8f9;}.cls-16{fill:#292f27;}.cls-17{fill:#b64c41;}.cls-18{fill:#866c5a;}.cls-19{fill:#a88771;}.cls-20{fill:#c2ab9b;}.cls-21{fill:#b0937f;}.cls-22{fill:#645143;}.cls-23{fill:#233862;}.cls-24{fill:#f99746;}.cls-25{fill:#ed7d2b;}.cls-26{fill:#c53800;}.cls-27{font-size:12px;font-family:MyriadPro-Regular, Myriad Pro;}</style></defs><rect class="cls-1" width="3200" height="2000"/><path class="cls-2" d="M339.85,1795.38s-240.44-298.59-54.28-717.71c214.13-482.08,541.8-362.52,714.9-174.07,79,85.95,241.6-174.34,453.14-511.18,288.49-459.36,1640.56-83.65,1458.23,623.09-88.23,342,150.46,579.34-172.17,780.59Z"/><path class="cls-3" d="M2942.66,1338c-22.6-83.45-163.42-57.37-163.42-57.37s-95.62,146-123.43,149.51,57.37-140.82,57.37-140.82c-53.9-5.21-191.24,60.85-191.24,60.85s8.69,170.37-19.12,166.9,0-151.25,0-151.25c-52.16,15.64-100.84,76.49-100.84,76.49-60.84,99.1,69.54,172.11,69.54,172.11s1.74,59.11-34.77,126.91h0s-8.24,12.51-16.61,33.79h14.22c1.16-3.81,2.44-7.5,3.86-11a.07.07,0,0,1,0-.06l.07-.15c1-2.2,2.37-5.33,4.11-9.13v0c4.34-8.5,7.28-14.78,9.14-19.32v0c13-26.7,31.77-61.48,44.27-68.77a27.83,27.83,0,0,1-3-6.52l3,6.52c24.34,52.15,146,60.85,213.84,46.94s38.25-33,1.74-64.07-113-22.86-135.61-35,10.44-24.34,55.64-20.86,67.8,48.68,140.82,55.63,128.64-130.38,128.64-130.38c-50.41,15.64-140.81-12.17-144.29-29.56s130.39-15.65,151.25-20.86S2965.26,1421.4,2942.66,1338Z"/><path class="cls-3" d="M689.07,1582c-4-61.14,96.41-76,96.41-76s97.64,76,117.09,71.91-70.8-81.25-70.8-81.25c34.94-15.87,142.21-3.11,142.21-3.11s33.28,116.24,51.14,107.53-34.73-101.43-34.73-101.43c38.57-1.48,85.18,28.15,85.18,28.15,63.55,52.47-7.11,131.37-7.11,131.37s12.4,40,52.45,77.12h0s8.4,6.5,18.9,18.85l-9.53,3.26c-1.66-2.29-3.36-4.46-5.12-6.51l0,0-.07-.09c-1.16-1.25-2.82-3-4.86-5.17h0c-4.87-4.71-8.28-8.25-10.56-10.86l0,0c-14.86-14.91-35.42-33.93-45.48-36a19.23,19.23,0,0,0,.54-5.07q-.26,2.43-.54,5.07c-4.35,40.57-83.95,74.34-132.61,80.58s-33.23-13.37-15.88-42.57,70.53-41.27,82.89-54.62-12.58-13.92-42.09-1.21-34.29,48.21-81.66,69.63-116.2-57.89-116.2-57.89c37.4-1.08,91.63-40.49,90-53s-91,19.45-106.21,20.74S693.07,1643.12,689.07,1582Z"/><path class="cls-4" d="M2569.63,485.3s-10.71-8.08-13.47-20.15c-2-9,3.09-20.21,3.51-20.72l-14.34-2.86s-4.25,19,3,31.69c2.2,3.87,8.59,9.21,12.71,11.21A12.37,12.37,0,0,0,2569.63,485.3Z"/><path class="cls-4" d="M2594.55,476.58l13,14.93s-36.89,9.79-58-16.3C2549.63,475.21,2580.68,485.71,2594.55,476.58Z"/><path class="cls-4" d="M1922,289.18s13.31-22.09,36.79-8.57l12.87-14s-13.44-8.9-41.86,10.45C1911.24,289.72,1922,289.18,1922,289.18Z"/><path class="cls-4" d="M1908.89,310.85s-4.48-24.09,35.17-41.86c0,0-14.22,8.07-17.19,32.56Z"/><path class="cls-4" d="M373.94,1253.17s-12.84-8.1-14.19-17.9c0,0-12.5.68-15.2,4.73,0,0,5.74,16.21,12.5,19.25C357.05,1259.25,372.25,1260.27,373.94,1253.17Z"/><path class="cls-4" d="M1812.1,537.53s-17.93-11.33-19.81-25c0,0-17.46,1-21.23,6.61,0,0,8,22.64,17.45,26.89C1788.51,546,1809.74,547.43,1812.1,537.53Z"/><path class="cls-3" d="M2912.78,484.88,3024.22,833.8a29.48,29.48,0,0,1-19,36.94l-612.1,195.5a29.48,29.48,0,0,1-36.94-19L2244.69,698.26a29.47,29.47,0,0,1,19-36.93l612.1-195.51A29.49,29.49,0,0,1,2912.78,484.88Z"/><path class="cls-5" d="M2560.77,928.41l-163.14,52.11a13.22,13.22,0,0,1-16.56-8.54l-.5-1.57a13.22,13.22,0,0,1,8.54-16.56l163.14-52.1a13.21,13.21,0,0,1,16.56,8.54l.5,1.56A13.21,13.21,0,0,1,2560.77,928.41Z"/><path class="cls-5" d="M2775.75,859.75l-163.14,52.1a13.22,13.22,0,0,1-16.56-8.54l-.5-1.57a13.21,13.21,0,0,1,8.54-16.55l163.14-52.11a13.22,13.22,0,0,1,16.56,8.54l.5,1.57A13.22,13.22,0,0,1,2775.75,859.75Z"/><path class="cls-5" d="M2581.58,741.87q2.85,8.93,1.56,15.61A14.43,14.43,0,0,1,2559,765.2q-4.92-4.69-7.77-13.62t-1.6-15.54a14.53,14.53,0,0,1,24.28-7.76Q2578.73,732.95,2581.58,741.87Zm-7.5,2.36a31.53,31.53,0,0,0-4.26-9c-2.53-3.39-5.26-4.62-8.22-3.67s-4.57,3.54-4.64,7.71a30.7,30.7,0,0,0,1.7,9.88q4.86,15.23,12.63,12.74,4.5-1.44,4.55-7.81A31.59,31.59,0,0,0,2574.08,744.23Z"/><path class="cls-5" d="M2615.07,731.17q2.85,8.93,1.56,15.61a14.43,14.43,0,0,1-24.17,7.72q-4.93-4.69-7.78-13.62t-1.6-15.54a14.54,14.54,0,0,1,24.29-7.76Q2612.23,722.26,2615.07,731.17Zm-7.49,2.36a31.39,31.39,0,0,0-4.27-9q-3.78-5.09-8.21-3.67t-4.64,7.71a30.43,30.43,0,0,0,1.7,9.88q4.86,15.22,12.63,12.74,4.49-1.44,4.54-7.81A31.26,31.26,0,0,0,2607.58,733.53Z"/><path class="cls-5" d="M2665.83,715q2.85,8.92,1.57,15.61a14.44,14.44,0,0,1-24.18,7.72q-4.92-4.71-7.77-13.63t-1.61-15.53a14.54,14.54,0,0,1,24.29-7.76Q2663,706,2665.83,715Zm-7.49,2.36a31.74,31.74,0,0,0-4.26-9c-2.53-3.39-5.26-4.61-8.22-3.66s-4.57,3.53-4.64,7.71a30.43,30.43,0,0,0,1.7,9.88q4.86,15.22,12.63,12.74,4.48-1.44,4.55-7.81A31.54,31.54,0,0,0,2658.34,717.32Z"/><path class="cls-5" d="M2699.33,704.26q2.85,8.93,1.56,15.61a14.43,14.43,0,0,1-24.17,7.72q-4.93-4.7-7.78-13.62t-1.6-15.54a14.54,14.54,0,0,1,24.29-7.76Q2696.49,695.34,2699.33,704.26Zm-7.49,2.36a31.26,31.26,0,0,0-4.27-9q-3.78-5.08-8.21-3.67t-4.64,7.71a30.43,30.43,0,0,0,1.7,9.88q4.86,15.23,12.63,12.74,4.48-1.44,4.54-7.81A31.21,31.21,0,0,0,2691.84,706.62Z"/><path class="cls-5" d="M2732.83,693.56q2.85,8.93,1.56,15.61a14.43,14.43,0,0,1-24.17,7.72q-4.93-4.7-7.78-13.62t-1.6-15.54a14.54,14.54,0,0,1,24.29-7.76Q2730,684.65,2732.83,693.56Zm-7.49,2.36a31.53,31.53,0,0,0-4.27-9q-3.78-5.08-8.21-3.67c-3,1-4.58,3.54-4.65,7.71a30.7,30.7,0,0,0,1.7,9.88q4.86,15.23,12.63,12.74,4.5-1.44,4.55-7.81A31.54,31.54,0,0,0,2725.34,695.92Z"/><path class="cls-5" d="M2766.32,682.86q2.85,8.92,1.57,15.61a14.44,14.44,0,0,1-24.18,7.73q-4.92-4.71-7.78-13.63t-1.6-15.54a14.54,14.54,0,0,1,24.29-7.76Q2763.48,674,2766.32,682.86Zm-7.49,2.36a31.39,31.39,0,0,0-4.27-9q-3.78-5.09-8.21-3.67t-4.64,7.71a30.7,30.7,0,0,0,1.7,9.88q4.86,15.23,12.63,12.74,4.49-1.42,4.55-7.81A31.59,31.59,0,0,0,2758.83,685.22Z"/><path class="cls-5" d="M2817.09,666.65q2.85,8.93,1.56,15.61a14.43,14.43,0,0,1-24.17,7.72q-4.93-4.71-7.78-13.63t-1.6-15.53a14.54,14.54,0,0,1,24.29-7.76Q2814.23,657.72,2817.09,666.65ZM2809.6,669a31.8,31.8,0,0,0-4.27-9q-3.78-5.09-8.21-3.67c-3,1-4.58,3.54-4.65,7.71a30.7,30.7,0,0,0,1.7,9.88q4.86,15.22,12.63,12.74,4.5-1.44,4.55-7.81A31.79,31.79,0,0,0,2809.6,669Z"/><path class="cls-5" d="M2850.58,656q2.85,8.92,1.56,15.61a14.42,14.42,0,0,1-24.17,7.72q-4.92-4.69-7.78-13.62t-1.6-15.54a14.54,14.54,0,0,1,24.29-7.76Q2847.74,647,2850.58,656Zm-7.49,2.36a31.26,31.26,0,0,0-4.27-9q-3.78-5.09-8.21-3.67t-4.64,7.71a30.43,30.43,0,0,0,1.7,9.88q4.86,15.22,12.63,12.74,4.48-1.44,4.55-7.81A31.59,31.59,0,0,0,2843.09,658.31Z"/><path class="cls-5" d="M2884.08,645.25q2.85,8.93,1.56,15.61a14.43,14.43,0,0,1-24.17,7.72q-4.93-4.7-7.78-13.62t-1.6-15.54a14.54,14.54,0,0,1,24.29-7.76Q2881.23,636.34,2884.08,645.25Zm-7.49,2.36a31.66,31.66,0,0,0-4.27-9q-3.78-5.08-8.21-3.67t-4.64,7.71a30.39,30.39,0,0,0,1.69,9.88q4.88,15.23,12.64,12.74,4.48-1.44,4.54-7.81A31.54,31.54,0,0,0,2876.59,647.61Z"/><path class="cls-5" d="M2917.58,634.55q2.85,8.93,1.56,15.61a14.44,14.44,0,0,1-24.18,7.73q-4.92-4.71-7.77-13.63t-1.6-15.54a14.54,14.54,0,0,1,24.29-7.76Q2914.73,625.64,2917.58,634.55Zm-7.5,2.36a31.66,31.66,0,0,0-4.26-9q-3.78-5.08-8.21-3.67c-3,1-4.58,3.54-4.65,7.71a30.7,30.7,0,0,0,1.7,9.88q4.86,15.23,12.63,12.74c3-1,4.51-3.56,4.55-7.8A31.6,31.6,0,0,0,2910.08,636.91Z"/><path class="cls-5" d="M2469.41,654.41l-159.65,51a13.22,13.22,0,0,1-16.56-8.55h0a13.21,13.21,0,0,1,8.54-16.55l159.65-51a13.22,13.22,0,0,1,16.56,8.55h0A13.2,13.2,0,0,1,2469.41,654.41Z"/><path class="cls-5" d="M2857.18,560a20.18,20.18,0,0,0-8.08-10.7,2.16,2.16,0,0,0-3.13.83l-.5,1a2.12,2.12,0,0,0,.7,2.73,14.81,14.81,0,0,1,5.6,17.52,2.14,2.14,0,0,0,1,2.64l1,.52a2.16,2.16,0,0,0,3-1.13A20.17,20.17,0,0,0,2857.18,560Z"/><path class="cls-1" d="M2867.53,556.7a31,31,0,0,0-13.65-17.2,2.15,2.15,0,0,0-3,.9l-.29.57a2.16,2.16,0,0,0,.84,2.82,26.12,26.12,0,0,1,10.46,32.76,2.15,2.15,0,0,0,1,2.78l.56.3a2.15,2.15,0,0,0,3-1A30.93,30.93,0,0,0,2867.53,556.7Z"/><path class="cls-5" d="M2876.59,553.8A40.45,40.45,0,0,0,2858.16,531a2.15,2.15,0,0,0-3,.9h0a2.15,2.15,0,0,0,.85,2.83,36.23,36.23,0,0,1,14.88,46.57,2.14,2.14,0,0,0,.94,2.8h0a2.16,2.16,0,0,0,3-1A40.49,40.49,0,0,0,2876.59,553.8Z"/><path class="cls-5" d="M2886.41,550.67a50.71,50.71,0,0,0-23.61-28.9,2.15,2.15,0,0,0-3,.91l-.5,1a2.14,2.14,0,0,0,.87,2.84,45.45,45.45,0,0,1,18.86,59.06,2.14,2.14,0,0,0,.94,2.81l1,.51a2.15,2.15,0,0,0,3-1A50.72,50.72,0,0,0,2886.41,550.67Z"/><rect class="cls-6" x="2126" y="787.85" width="348.49" height="1003.79"/><rect class="cls-7" x="1205.33" y="787.85" width="920.67" height="1003.79"/><rect class="cls-8" x="1630.54" y="853.67" width="70.26" height="920.67" transform="translate(2979.67 -351.66) rotate(90)"/><rect class="cls-8" x="2265.12" y="1139.76" width="70.26" height="348.49" transform="translate(3614.26 -986.24) rotate(90)"/><path class="cls-4" d="M1840.1,798.6s208-135.16,349.39-91.73l-29.17,27.24,13.15,45.78s-157.23-51.2-337.67,26.41Z"/><path class="cls-9" d="M1828.47,768s-36.7-4.44-91.4-12c-145.21-20-417.2-61.76-466-100.43-76.71-60.75,105.07-318.74,183.75-354.55S1828.47,768,1828.47,768Z"/><path class="cls-9" d="M2403.94,446.72c13.11,63.92-580.87,340-580.87,340s10.81-29.22,28.38-75l0-.07c64.22-167.12,218.93-554.92,269.76-549.55,5.11.53,11.08,2.35,17.76,5.28C2217.1,201.79,2391.86,387.86,2403.94,446.72Z"/><path class="cls-4" d="M2134,224.27c-36.28,63-278.71,480.92-282.51,487.44,64.22-167.12,218.93-554.92,269.76-549.55,0,0,10.07-.29,17.76,5.28C2148.28,174.19,2154,189.48,2134,224.27Z"/><path class="cls-4" d="M1737.17,756h-.1c-145.21-20-417.2-61.76-466-100.43-22-62.1,35.15-67.15,76.78-71.52S1737.17,756,1737.17,756Z"/><path class="cls-4" d="M1717.69,787.77s33.3-75.75,98.83-79.95c68.45-4.38,107.32,79.95,107.32,79.95Z"/><rect class="cls-10" x="1177.42" y="787.85" width="963.35" height="138.06"/><rect class="cls-7" x="2140.77" y="787.85" width="363.1" height="138.06"/><path class="cls-4" d="M1751.43,776.28s-188.68-59.77-316-20.25c-146.76,45.55-138.06,226.63-138.06,226.63l34.51-14.19,46.6,21.86s7.86-191.75,127.51-218.59C1609.45,748.53,1751.43,776.28,1751.43,776.28Z"/><rect class="cls-8" x="1584.38" y="787.85" width="70.26" height="1003.68"/><rect class="cls-4" x="974.53" y="492.24" width="68.03" height="195.94" transform="translate(-135.28 351.09) rotate(-18.53)"/><rect class="cls-9" x="801.23" y="531.61" width="179.72" height="195.94" transform="translate(-153.88 315.82) rotate(-18.53)"/><rect class="cls-8" x="885.74" y="544.21" width="13.71" height="179.72" transform="matrix(0.32, 0.95, -0.95, 0.32, 1210.13, -413.76)"/><rect class="cls-8" x="1003.19" y="560.69" width="13.71" height="68.03" transform="matrix(0.32, 0.95, -0.95, 0.32, 1252.93, -551.97)"/><path class="cls-8" d="M898.1,520.72s44.29-41.22,83.73-44.41l-5.64,7.3,6.54,7.36s-44.05,3-85.21,31.5Z"/><path class="cls-9" d="M888.85,522.91s-7.06,1.46-17.65,3.46c-28.12,5.31-81.05,14.45-92.49,10.32-18-6.49-.33-65.51,12-77S888.85,522.91,888.85,522.91Z"/><path class="cls-9" d="M975.44,427.75c6.39,11-86.42,99-86.42,99s.19-6.08.6-15.64v0c1.52-34.91,6.09-116.28,15.83-118.44a11.94,11.94,0,0,1,3.62-.13C925.66,394,969.55,417.6,975.44,427.75Z"/><path class="cls-4" d="M911.68,403.32c-2.81,13.91-21.76,106.3-22,107.74,1.52-34.91,6.09-116.28,15.83-118.44a6.35,6.35,0,0,1,3.62-.13C911.21,393.17,913.22,395.64,911.68,403.32Z"/><path class="cls-4" d="M871.21,526.36h0c-28.12,5.31-81.05,14.45-92.49,10.32-7.93-10.13,2.34-14.61,9.77-18S871.21,526.36,871.21,526.36Z"/><path class="cls-8" d="M869.58,533.44s1.46-16.08,13.33-20.92c12.4-5.06,24.82,8.13,24.82,8.13Z"/><rect class="cls-10" x="768.99" y="536.39" width="188.05" height="26.95" transform="translate(-130.01 302.77) rotate(-18.53)"/><rect class="cls-7" x="950.33" y="495.25" width="70.88" height="26.95" transform="translate(-110.57 339.64) rotate(-18.53)"/><path class="cls-8" d="M875.11,529.22s-38.63.65-59.74,15.86c-24.34,17.53-11.5,50.51-11.5,50.51l5.51-4.77,10,1.16s-10.44-36,10-48.37C847.11,532.89,875.11,529.22,875.11,529.22Z"/><rect class="cls-8" x="875.96" y="534.43" width="13.71" height="197.63" transform="translate(-155.48 313.38) rotate(-18.53)"/><path class="cls-11" d="M2133.28,894.33s-25.51,15-9.85,44.14c0,0-22.34-4.08-27.16-10.75a17.55,17.55,0,0,0,1.39,4.18s-20.53-4.66-27.24-13.22,26.22-111.2,79.59-84.62c0,0,48.8,9.06,29.68,63.24s-1.05,59-1.05,59-5.68,1.14-8.1.5c0,0-3.19-2.29-3.37-4.43,0,0-.11,3.26.54,4.48,0,0-20-3.31-27.78-13.25S2127.48,905,2133.28,894.33Z"/><path class="cls-12" d="M2096.45,981.56l-.09,0C2096.2,981.57,2096.24,981.56,2096.45,981.56Z"/><path class="cls-12" d="M2158.45,963.71c.75,6.72,1.64,12.74,2,15.61.9,6.44-60.15,2.25-64,2.24,2.71-1.18,11-27.45,13.62-37.47,3.17-12.15,5.67-25.28,5.67-25.28l43.1,2.73,2.57.16a150.86,150.86,0,0,0-3.51,16.57c-.1.69-.2,1.4-.29,2.08C2156.83,946.07,2157.52,955.42,2158.45,963.71Z"/><path class="cls-11" d="M2109.8,914.47s-7-22.16-5.58-39.16c1-12.13,18.28-53.52,59.81-35.91A60.79,60.79,0,0,1,2185.92,855c7.69,8.81,17.6,26.06-7.45,59.54l-7.28,11.62Z"/><path class="cls-13" d="M2158.45,963.71c-30.16-8.83-42.95-43.66-42.95-43.66,12.75.37,29.37,9.22,42.4,18.22-.1.69-.2,1.4-.29,2.08C2156.83,946.07,2157.52,955.42,2158.45,963.71Z"/><path class="cls-12" d="M2160.58,951.47S2106.11,938,2115,904.22s7.88-58.3,43-51.13,38.49,21.84,38.26,33.84S2175,954.11,2160.58,951.47Z"/><path class="cls-11" d="M2183,858.8s-25.35,35.71-49.69,35.53-32.61-8.89-32.61-8.89,21.16-9.26,31.2-32.54C2131.87,852.9,2176.76,837,2183,858.8Z"/><path class="cls-11" d="M2178.43,861.05s8.75,11.78,9.18,21.1-3.05,27.35,2.27,28.12c0,0,18.32-24,9.78-42.55C2190.61,848,2178.43,861.05,2178.43,861.05Z"/><path class="cls-11" d="M2180.14,862.93s-21.57,38.71-53.85,44.39c0,0,35.51-17.89,45.21-44.65S2180.14,862.93,2180.14,862.93Z"/><path class="cls-1" d="M2152.08,929.81s.68,5.14,4,6.36,12,3.42,12.88,2.88a44.26,44.26,0,0,0,4.14-4.56S2159.34,929.22,2152.08,929.81Z"/><path class="cls-12" d="M2131.74,1446.76c-.69,2.9-1.39,5.76-2.07,8.59-4.1,17.07-7.93,32.89-10.33,46.14-3.13,17.23-3.87,30,.24,35.44,16.91,22.18,0,198.21,0,198.21L2100.32,1755s-33.47-173.79-42.55-201c-4.13-12.38-10.14-65.25-15.45-119.23q-.4-4-.79-8.1c-.92-9.44-1.81-18.84-2.66-28-4.76-51.07-8.33-94.8-8.33-94.8s35.5-25,67.76-27.74c19-1.66,36.88,4.39,45.7,27.74C2156.86,1337.77,2143.83,1396.43,2131.74,1446.76Z"/><path class="cls-13" d="M2131.74,1446.76c-26.38-19-63.49-53-77-108.52-2.58-27.63,19.21-53.89,43.52-62.18,19-1.66,36.88,4.39,45.7,27.74C2156.86,1337.77,2143.83,1396.43,2131.74,1446.76Z"/><path class="cls-12" d="M2227.94,1111.1l129.64,33.49v15.13s-129-1.51-137.33-15.88S2227.94,1111.1,2227.94,1111.1Z"/><path class="cls-12" d="M2357.57,1610.05l-6.06,25s-175.36-90.57-198-108c-9.11-7-21.15-44.94-32.31-87.87-16.61-64-31.24-139-31.24-139s24.58-94.55,90.39-36.68c39.38,34.63,33.26,101.35,29,153.25-2.87,34.82-4.94,63,8.12,70.27,25.47,14.21,100.22,79.7,123.88,124.76Z"/><path class="cls-12" d="M2060.09,1189.76c-45.8-11.65-96.14-82.7-96.14-82.7l12.89-11.19c13.35,15.74,68.87,42.85,68.87,42.85-.3-14.4.08-27.54,1-39.5,6.16-81.28,36.8-108.36,45.17-114.3a20.27,20.27,0,0,1,2.12-1.36s0,.59.08,1.7c.12,2.42.34,7.29.57,14C2096.33,1049,2098.36,1199.51,2060.09,1189.76Z"/><path class="cls-1" d="M2096.36,1092.22c-2.38,58-11.05,115.4-36.29,111.7-31-4.51-39-33.39-40.65-54.86a123.32,123.32,0,0,1,.45-23.86s15.23-.07,17.7-2.34c11.69-10.8,8.22-116.76,14-127.76S2094.93,977,2094.93,977,2098.72,1034.91,2096.36,1092.22Z"/><path class="cls-14" d="M2096.36,1092.22c-2.38,58-11.05,115.4-36.29,111.7-31-4.51-39-33.39-40.65-54.86,7.6-.38,21-2.24,26.29-10.34,7.6-11.61,31.34-86.3,31.34-86.3S2086.39,1069.19,2096.36,1092.22Z"/><path class="cls-1" d="M2291.56,1111.1c8.38,11.91,3.76,35-13.83,53.6-10.92,11.55-25.71,18.38-49.79,14.83-10.5-1.55-39.82-18.11-42.91-38.29-.55-3.66-.86-5.8-.86-5.8s-13.35,13.37-13.85,15.89c-.23,1.14-1.38,11.24-1.56,12.62-.21,1.67,1,7.8,1,7.8s-63.78,27.9-116.52-3.87c0,0-15-128.85-4.23-150.29,5.36-10.65,35.46-31.39,45.94-40.55,2.36-2.07,4.75-8.28,4.1-12.28-.53-3.38,3.36-9.08,6.62-8,6.3,2,24.14,10.85,36.69,7.48,6.25-1.66,14.17-8.89,20.23-7.23,7.41,2-.41,19.84,3.78,20.08,5.79.28,37,6.53,39.65,11.57.91,1.75,9.88,25.53,21.14,57a.2.2,0,0,1,0,.08C2248.27,1104.69,2279.25,1093.62,2291.56,1111.1Z"/><path class="cls-15" d="M2184.17,1135.44s-1.55-49.15-5.53-48.55-61.26,55.75-47.65,77.81S2184.17,1135.44,2184.17,1135.44Z"/><path class="cls-11" d="M2227.94,1337s-22.09,6.82-54.62,11.32c-40.28,5.57-96.59,7.58-146.88-11.32,0,0-4.14-74.84,7.77-113.84s17.49-57.69,17.49-57.69,47.74,12,96.22,2.69a156.63,156.63,0,0,0,20.34-5.25s29.91,63.49,38.13,90.7S2227.94,1337,2227.94,1337Z"/><path class="cls-16" d="M2227.94,1337s-22.09,6.82-54.62,11.32c-59.65-33.83-30.57-176.18-30.57-176.18,1.77-1.43,3.5-2.76,5.17-4a156.63,156.63,0,0,0,20.34-5.25s29.91,63.49,38.13,90.7S2227.94,1337,2227.94,1337Z"/><path class="cls-17" d="M2102.4,1179.53c-35.37,0-50-12.17-51-13l-2.29-16.66c.34.26,47.79,28.75,121.23,1.46l-1.56,12.62C2140.52,1174.44,2120.77,1179.53,2102.4,1179.53Z"/><path class="cls-12" d="M2357.58,1144.59s23.78-11.72,33.24-12.85,25.34-1.52,25.34,0-17,12.08-21.56,12.85-13.24,7.19-10.59,8,16.64-2.46,16.83,0-8.51,4-10,5.86-6.81,4.16-15.32,3-17.92-1.7-17.92-1.7Z"/><path class="cls-12" d="M1976.82,1095.83l-12.93,11.28s-23-16.78-24.07-23.66v-.69c0-7.15,14.58-22,26.68-22.55a6.52,6.52,0,0,1,3.3.82c6.45,4,7.22,20.84,7.16,29.53C1977,1093.74,1976.82,1095.83,1976.82,1095.83Z"/><path class="cls-11" d="M2357.57,1610.05l-6.06,25s-175.36-90.57-198-108c-9.11-7-21.15-44.94-32.31-87.87,15,3.07,47.3,4.71,88.1-22.48-2.87,34.82-4.94,63,8.12,70.27,25.47,14.21,100.22,79.7,123.88,124.76Z"/><path class="cls-11" d="M2392.24,1619.76l-.16,0c-.78-.2-4.39-1.39-6.78-7.12-1.58-3.78-2.05-6.88-3.49-10.62l-5.93-10.22c-6.19-8.15-8.36-6.24-8.36-6.24s-1.62,2.07-4,4.81c-4,4.52-10,10.82-14.3,12.44a12.54,12.54,0,0,0-6.13,4.79,11.8,11.8,0,0,0-1.82,4.21s12.71,2.21,11.61,8.48c-2.16,12.13-1.65,14.33-1.43,14.73l.07.08s21.69,11.35,28.63,13.58c12.34,3.95,18.78,12.34,22.78,16.17a7.14,7.14,0,0,0,6.07,1.92c3.26-.52,7.48-1.56,8.4-3.56Z"/><path class="cls-11" d="M2119.58,1536.93c16.91,22.18,0,198.21,0,198.21L2100.32,1755s-33.47-173.79-42.55-201c-4.13-12.38-10.14-65.25-15.45-119.23,16,7.16,55.19,22.75,87.35,20.63-4.1,17.07-7.93,32.89-10.33,46.14C2116.21,1518.72,2115.47,1531.54,2119.58,1536.93Z"/><path class="cls-11" d="M2138.93,1763.79l-10.39,5.63c-3.78,1.33-6.89,1.72-10.71,3.18-5.81,2.22-9.89,6.6-10.08,7.38-2.94,11.92-7.1,11.16-7.1,11.16l-41.73.39c-2-1,1.37-9.41,3-11,3.94-3.89,15.75-1.93,20.06-14.15,2.43-6.87,14.4-28.22,14.4-28.22l.09-.07c.4-.21,2.62-.66,14.68,1.85,6.23,1.29,8.81-11.36,8.81-11.36a11.73,11.73,0,0,1,4.15,2,12.51,12.51,0,0,1,4.62,6.26c1.49,4.33,7.61,10.57,12,14.65,2.67,2.47,4.7,4.15,4.7,4.15S2147.26,1757.84,2138.93,1763.79Z"/><rect class="cls-18" x="1542.18" y="1282.42" width="177.23" height="510.49"/><rect class="cls-19" x="1073.96" y="1282.42" width="468.22" height="510.49"/><rect class="cls-20" x="1290.21" y="1315.89" width="35.73" height="468.22" transform="translate(2858.07 241.93) rotate(90)"/><rect class="cls-21" x="1612.93" y="1461.39" width="35.73" height="177.23" transform="translate(3180.8 -80.8) rotate(90)"/><path class="cls-22" d="M1415.52,1274.56s143.54-65.15,243.6-40.39l-20,13.37,10.07,23.6s-111.32-29-236.57,7.27Z"/><path class="cls-21" d="M1390.93,1272.06s-18.66-2.26-46.48-6.08c-73.85-10.16-212.18-31.41-237-51.08-39-30.89,53.43-162.1,93.44-180.31S1390.93,1272.06,1390.93,1272.06Z"/><path class="cls-21" d="M1683.59,1108.68c6.67,32.5-295.41,172.93-295.41,172.93s5.5-14.86,14.44-38.13l0,0c32.66-85,111.34-282.21,137.19-279.48a31.56,31.56,0,0,1,9,2.68C1588.57,984.12,1677.45,1078.74,1683.59,1108.68Z"/><path class="cls-22" d="M1546.31,995.55c-18.45,32-141.74,244.57-143.67,247.89,32.66-85,111.34-282.21,137.19-279.48a16.44,16.44,0,0,1,9,2.68C1553.57,970.08,1556.5,977.85,1546.31,995.55Z"/><path class="cls-22" d="M1344.5,1266h0c-73.85-10.16-212.18-31.41-237-51.08-11.21-31.57,17.87-34.15,39-36.37S1344.5,1266,1344.5,1266Z"/><path class="cls-22" d="M1334.59,1282.12s16.93-38.52,50.26-40.66c34.81-2.22,54.58,40.66,54.58,40.66Z"/><rect class="cls-21" x="1059.77" y="1282.42" width="489.92" height="70.21"/><rect class="cls-22" x="1549.69" y="1282.42" width="184.66" height="70.21"/><path class="cls-22" d="M1351.69,1276.53s-96-30.39-160.71-10.3c-74.63,23.17-70.21,115.26-70.21,115.26l17.56-7.21,23.69,11.11s4-97.51,64.85-111.17C1279.49,1262.42,1351.69,1276.53,1351.69,1276.53Z"/><rect class="cls-20" x="1266.74" y="1282.42" width="35.73" height="514.89"/><path class="cls-23" d="M507,1072.8s132,96.72,164.26,94.39,146.61-72.88,146.61-72.88l-24.19-28.75s-103.54,38.36-122.5,27.78-93-100.35-124.08-95.56S485.31,1038,507,1072.8Z"/><path class="cls-11" d="M429.14,1795.5H389.69c-5-2.7-9.4-8.87-10.79-18.07-2.52-16.63-17.26-23.3-19.26-30-3.07-10.39,12.71-25,12.71-25L375,1719l2.75-3.53,26.18,6.16s.65,6.24,1.05,14.19c.28,5.73.43,12.35.11,18.16-.77,13.86,3.88,28.79,16.19,31.49C430.38,1787.42,430,1792.82,429.14,1795.5Z"/><path class="cls-11" d="M658.1,1799.5H567.88c-4.34-5.29-2.74-24.83-2.09-31.21.14-1.29.23-2,.23-2s30.81-24.64,35-5.77c.13.59.29,1.17.46,1.74,5.33,17.65,29.24,25.67,43.05,27.91C653.55,1791.58,656.87,1796.25,658.1,1799.5Z"/><path class="cls-24" d="M640.91,1295.89s-4.68,58.37-10.18,128.53c-7.47,95.31-16.46,212.38-17.35,234.56-1.54,38.51-7.7,100.11-7.7,100.11s-14.63,14.63-43.9,8.47c0,0-26.08-87.94-33.53-181-.12-1.52-.23-3.06-.35-4.59-6.93-94.72-17.71-294.17-17.71-294.17Z"/><path class="cls-25" d="M640.91,1295.89s-4.68,58.37-10.18,128.53L528.25,1586.57c-.12-1.52-.23-3.06-.35-4.59-6.93-94.72-17.71-294.17-17.71-294.17Z"/><path class="cls-24" d="M619.54,1302.82s-84.32,211.39-139.77,310.73S407,1740.61,407,1740.61s-31.76-12.71-34.65-21.37c0,0,21.2-191.78,58.33-238.53,21-26.42,45.63-105.69,46.78-133.42s7.51-82.58,7.51-82.58Z"/><path class="cls-12" d="M564,1001.85c-31.47,14.26-91.43-6.78-91.43-6.78S500,968.8,492.71,921.92l27.75,17.34L539.31,951a205.48,205.48,0,0,1,.76,22.71c0,3.82-.15,8.09-.38,12.77A78.77,78.77,0,0,1,564,1001.85Z"/><path class="cls-13" d="M539.31,951a205.48,205.48,0,0,1,.76,22.71c-19.43-1-44.74-29.14-44.74-29.14,9.36-4,17.79-5.5,25.13-5.34Z"/><path class="cls-12" d="M549.22,949.05s-53,15.49-62.09-17.63S465,878,498.43,866.69s43.5-.47,49.24,9.85S562.76,944.17,549.22,949.05Z"/><path class="cls-11" d="M644.19,1275.08c1.66,15.26,2.42,24.77,2.06,25.15A5.34,5.34,0,0,1,643,1302c-12.3,1.31-47.3,12.44-78,13-25.85.63-49.38-4.21-75-12.18-3.4-1.06-11.31-4.13-11.57-7.75-.37-4-.66-9.74-1-17-1.3-25.28-3.5-68.76-12.43-118.16-1.64-9.2-3-18.36-4.14-27.4-8.38-67.39-2.15-128.3,22.29-151.62,2.1-1.92,17,3.27,30.73,8.09,12.67,4.47,24.7,3.68,35.73,0l12.51,8.63c15.3,11.12,32.47,26.67,42.19,52.26,8.29,21.77,16.43,61.84,23.29,103.55,3.1,18.92,6.08,38,8.43,56.16l.08.66c.38,1.78.62,3.76.83,5.56q.66,4.85,1.27,9.52C640.71,1244.69,642.77,1262,644.19,1275.08Z"/><path class="cls-11" d="M486.7,928.18s5.43-1.6,3.61-9.13-3-17.51,3.43-16.4,7.34,6,9.55,2.83S504.06,890,522.43,887s26.66,2.44,34.8-2.37,7-17.87,7-17.87-1.88,4.94-5.39,6.86c0,0,12-21.34-6.25-32.78s-34.08-.61-43.61,1.13c-21,3.84-34.53,6.75-39.77,21.49S471.5,916.43,486.7,928.18Z"/><path class="cls-16" d="M644.19,1275.08c-2.59.47-47.75,8.58-78.45-11.64-31.62-20.82-68.65-144.27-68.65-144.27s71,79,72.38,82.07c1.15,2.63,52.36,18.9,68.69,24C640.71,1244.69,642.77,1262,644.19,1275.08Z"/><rect class="cls-4" x="663.43" y="881.36" width="351.26" height="351.26" transform="translate(-14.95 12.04) rotate(-0.82)"/><rect class="cls-9" x="588.47" y="882.43" width="351.26" height="351.26" transform="translate(-14.97 10.98) rotate(-0.82)"/><path class="cls-1" d="M632,992.79c-.47-33.15,22.26-60.27,56.41-60.75,33.82-.49,57,25.65,57.45,59.13.47,32.82-22.25,60.27-56.41,60.76C655.65,1052.41,632.5,1026.28,632,992.79Zm193.75-60,39.85-.57L697.83,1169l-39.85.57Zm-115,58.91c-.23-15.74-9.13-29.34-22.52-29.15-14.07.2-21.24,13.7-21,29.77.23,15.74,9.13,29.35,22.52,29.16C703.77,1021.25,710.94,1007.41,710.72,991.67Zm67,119c-.47-33.15,22.26-60.27,56.41-60.76,33.83-.48,57,25.65,57.45,59.14.47,32.81-22.25,60.27-56.41,60.75C801.35,1170.25,778.2,1144.12,777.72,1110.63Zm78.7-1.12c-.23-15.74-9.13-29.35-22.52-29.16-14.07.2-21.24,13.7-21,29.78.23,15.74,9.13,29.34,22.53,29.15C849.47,1139.08,856.64,1125.25,856.42,1109.51Z"/><path class="cls-12" d="M762.9,1247.29c-11.86-.23-27.07-5.32-31.94-7.75a55.45,55.45,0,0,1-12.44-8.07l1.25-7.8,1.5-9.33s.92-.14,2.44-.3,3.65-.32,6.06-.37a7.88,7.88,0,0,0,7.13-1.7c3.22-2.88,9.16-4.83,13.66-3.75s14.15.07,14.45,1.64c.76,3.8-13.31,3.11-15,5.49a2.83,2.83,0,0,0,.14,3.88l.06,0c8.24,8.31,36.6,11.33,35.47,17.93C785.29,1239.66,767.91,1247.38,762.9,1247.29Z"/><path class="cls-11" d="M475.47,1071.87s65,150.17,94,164.48,161.5,3.19,161.5,3.19l.87-25.63s-114.09-22.6-125.1-41.31S577.23,1039,548,1027.43,474.36,1030.92,475.47,1071.87Z"/><path class="cls-8" d="M2772.86,1473.88q-2.16,1.32-4.38,2.54c-.51.28-1,.56-1.51.82-1.15.61-2.3,1.2-3.46,1.78a116.7,116.7,0,0,1-107.7-207q2.24-1.23,4.52-2.36t4.44-2.09a116.36,116.36,0,0,1,35-9.42,116.71,116.71,0,0,1,73.06,215.72Z"/><path class="cls-26" d="M2712.9,1481.78a106.37,106.37,0,1,1,51.24-13.23A106.4,106.4,0,0,1,2712.9,1481.78Zm-.18-206.34a100,100,0,1,0,87.64,51.73A100.1,100.1,0,0,0,2712.72,1275.44Z"/><polygon class="cls-26" points="2712.81 1297.15 2736.26 1344.66 2788.68 1352.28 2750.75 1389.26 2759.7 1441.48 2712.81 1416.82 2665.91 1441.48 2674.87 1389.26 2636.93 1352.28 2689.36 1344.66 2712.81 1297.15"/><path class="cls-8" d="M2842.79,1189.9c-.81.49-1.64,1-2.47,1.43l-.86.46c-.65.35-1.29.68-1.95,1a65.86,65.86,0,0,1-67.5-112.57,63.63,63.63,0,0,1,6.72-4.24c.84-.47,1.69-.92,2.55-1.34s1.67-.81,2.51-1.18a65.51,65.51,0,0,1,19.77-5.31,65.87,65.87,0,0,1,41.23,121.75Z"/><path class="cls-26" d="M2809,1194.35a60,60,0,1,1,28.92-7.46A60,60,0,0,1,2809,1194.35Zm-.11-116.45a56.44,56.44,0,1,0,49.47,29.2A56.49,56.49,0,0,0,2808.84,1077.9Z"/><polygon class="cls-26" points="2808.9 1090.15 2822.13 1116.97 2851.72 1121.27 2830.31 1142.14 2835.36 1171.61 2808.9 1157.69 2782.43 1171.61 2787.49 1142.14 2766.07 1121.27 2795.66 1116.97 2808.9 1090.15"/><path class="cls-8" d="M1713.15,336.5c-.48.59-1,1.17-1.48,1.74-.17.2-.35.39-.52.58-.4.43-.8.86-1.21,1.28a52.77,52.77,0,0,1-81-67.05,50.38,50.38,0,0,1,4-5c.51-.58,1-1.14,1.57-1.69s1-1.06,1.58-1.56a50.69,50.69,0,0,1,5.15-4.29,51.71,51.71,0,0,1,8.37-5,52.77,52.77,0,0,1,63.6,81Z"/><path class="cls-26" d="M1672.68,351.63a48.08,48.08,0,1,1,2.83-.08C1674.56,351.61,1673.62,351.63,1672.68,351.63Zm.12-93.28c-.89,0-1.77,0-2.67.08a45,45,0,1,0,2.67-.08Z"/><polygon class="cls-26" points="1660.96 270.18 1678.1 286.91 1701.61 282.27 1690.99 303.75 1702.67 324.66 1678.96 321.21 1662.68 338.77 1658.64 315.16 1636.9 305.1 1658.11 293.96 1660.96 270.18"/><path class="cls-8" d="M1558.88,1757c-.86,1.06-1.75,2.1-2.66,3.12l-.93,1q-1.07,1.16-2.16,2.28a94.25,94.25,0,0,1-137.65-128.7c.92-1,1.86-2,2.81-3s1.87-1.89,2.83-2.79a93.72,93.72,0,0,1,24.14-16.58A94.26,94.26,0,0,1,1558.88,1757Z"/><path class="cls-26" d="M1486.57,1784a86.17,86.17,0,1,1,5.06-.15C1489.94,1784,1488.25,1784,1486.57,1784Zm.22-166.62c-1.58,0-3.16,0-4.75.14a80.48,80.48,0,1,0,4.75-.14Z"/><polygon class="cls-26" points="1465.65 1638.51 1496.27 1668.39 1538.25 1660.1 1519.29 1698.46 1540.15 1735.82 1497.81 1729.65 1468.72 1761.03 1461.51 1718.85 1422.67 1700.88 1460.56 1680.99 1465.65 1638.51"/><path class="cls-3" d="M2900.24,1802.85l-2752.09-4c-3.72,0-5.13-1.41-5.13-3.13v-1.06c0-1.72,1.41-3.13,7.13-3.13l2752.09,4c-2.28,0-.87,1.41-.87,3.13v1.06C2901.37,1801.44,2900,1802.85,2900.24,1802.85Z"/><path class="cls-22" d="M1854.16,1149.37s-13,8.9-27.55,7.44c-10.78-1.09-21.39-11.06-21.8-11.72l-8.58,14.92s19.63,11.91,36.46,8.65c5.15-1,13.51-6.12,17.29-10A14.59,14.59,0,0,0,1854.16,1149.37Z"/><path class="cls-22" d="M1853.81,1118.28l21.57-8.93s-3,44.83-40,58.53C1835.37,1167.88,1858.78,1137.19,1853.81,1118.28Z"/><path class="cls-24" d="M2005.15,1654.2s9.42,10.67,18.69,10.46c0,0,1.23,11.67-2.12,14.77,0,0-15.85-2.9-19.68-8.69C2002,1670.74,1998.84,1656.82,2005.15,1654.2Z"/><path class="cls-22" d="M1857.37,1507.51s-8.53-10.35-8.41-22.73c.1-9.2,7.72-18.94,8.24-19.34l-13.28-6.11s-8.56,17.52-4.51,31.5c1.24,4.28,6.22,11,9.75,13.86A12.42,12.42,0,0,0,1857.37,1507.51Z"/><path class="cls-22" d="M1883.64,1504.83l9.21,17.55s-38.14.94-52.58-29.34C1840.27,1493,1868,1510.48,1883.64,1504.83Z"/><text class="cls-27" transform="translate(1472.49 980.09)">#f75919</text></svg>